HIERARCHY
ROOT Hips
{
	OFFSET -3.958830 18.904000 13.208200
	CHANNELS 6 Xposition Yposition Zposition Zrotation Yrotation Xrotation 
	JOINT LHipJoint
	{
		OFFSET 0.000000 0.000000 0.000000
		CHANNELS 3 Zrotation Yrotation Xrotation
		JOINT LeftUpLeg
		{
			OFFSET 1.800000 -1.400000 0.085000
			CHANNELS 3 Zrotation Yrotation Xrotation
			JOINT LeftLeg
			{
				OFFSET 2.215000 -6.000000 0.000000
				CHANNELS 3 Zrotation Yrotation Xrotation
				JOINT LeftFoot
				{
					OFFSET 2.500000 -6.900000 0.000000
					CHANNELS 3 Zrotation Yrotation Xrotation
					JOINT LeftToeBase
					{
						OFFSET 0.200000 -0.500000 1.950000
						CHANNELS 3 Zrotation Yrotation Xrotation
						End Site
						{
							OFFSET 0.000000 0.000000 0.000000
						}
					}
				}
			}
		}
	}
	JOINT RHipJoint
	{
		OFFSET 0.000000 0.000000 0.000000
		CHANNELS 3 Zrotation Yrotation Xrotation
		JOINT RightUpLeg
		{
			OFFSET -1.800000 -1.400000 0.085000
			CHANNELS 3 Zrotation Yrotation Xrotation
			JOINT RightLeg
			{
				OFFSET -2.215000 -6.000000 0.000000
				CHANNELS 3 Zrotation Yrotation Xrotation
				JOINT RightFoot
				{
					OFFSET -2.500000 -6.900000 0.000000
					CHANNELS 3 Zrotation Yrotation Xrotation
					JOINT RightToeBase
					{
						OFFSET -0.200000 -0.500000 1.950000
						CHANNELS 3 Zrotation Yrotation Xrotation
						End Site
						{
							OFFSET 0.000000 0.000000 0.000000
						}
					}
				}
			}
		}
	}
	JOINT LowerBack
	{
		OFFSET 0.000000 0.000000 0.000000
		CHANNELS 3 Zrotation Yrotation Xrotation
		JOINT Spine
		{
			OFFSET -0.087000 1.940000 -0.288900
			CHANNELS 3 Zrotation Yrotation Xrotation
			JOINT Spine1
			{
				OFFSET 0.000000 1.950000 0.060000
				CHANNELS 3 Zrotation Yrotation Xrotation
				JOINT Neck
				{
					OFFSET 0.000000 0.000000 0.000000
					CHANNELS 3 Zrotation Yrotation Xrotation
					JOINT Neck1
					{
						OFFSET 0.000000 1.600000 0.340000
						CHANNELS 3 Zrotation Yrotation Xrotation
						JOINT Head
						{
							OFFSET 0.000000 1.667000 -0.240000
							CHANNELS 3 Zrotation Yrotation Xrotation
							End Site
							{
								OFFSET 0.000000 0.000000 0.000000
							}
						}
					}
				}
				JOINT LeftShoulder
				{
					OFFSET 0.000000 0.000000 0.000000
					CHANNELS 3 Zrotation Yrotation Xrotation
					JOINT LeftArm
					{
						OFFSET 2.700000 1.550000 -0.730000
						CHANNELS 3 Zrotation Yrotation Xrotation
						JOINT LeftForeArm
						{
							OFFSET 5.450000 0.000000 0.000000
							CHANNELS 3 Zrotation Yrotation Xrotation
							JOINT LeftHand
							{
								OFFSET 3.450000 0.000000 0.000000
								CHANNELS 3 Zrotation Yrotation Xrotation
								JOINT LeftHandIndex1
								{
									OFFSET 0.750000 0.000000 0.000000
									CHANNELS 3 Zrotation Yrotation Xrotation
									End Site
									{
										OFFSET 0.000000 0.000000 0.000000
									}
								}
							}
						}
					}
				}
				JOINT RightShoulder
				{
					OFFSET 0.000000 0.000000 0.000000
					CHANNELS 3 Zrotation Yrotation Xrotation
					JOINT RightArm
					{
						OFFSET -2.700000 1.550000 -0.730000
						CHANNELS 3 Zrotation Yrotation Xrotation
						JOINT RightForeArm
						{
							OFFSET -5.450000 0.000000 0.000000
							CHANNELS 3 Zrotation Yrotation Xrotation
							JOINT RightHand
							{
								OFFSET -3.450000 0.000000 0.000000
								CHANNELS 3 Zrotation Yrotation Xrotation
								JOINT RightHandIndex1
								{
									OFFSET -0.750000 0.000000 0.000000
									CHANNELS 3 Zrotation Yrotation Xrotation
									End Site
									{
										OFFSET 0.000000 0.000000 0.000000
									}
								}
							}
						}
					}
				}
			}
		}
	}
}
MOTION
Frames: 10
Frame Time: 0.016667
0.782060 13.099570 -1.944370 -58.697152 -54.615245 5.912836 -16.071871 7.046357 4.480008 -27.539404 -16.667891 -60.937503 53.680780 -10.701445 48.148889 0.625047 12.202592 -0.201384 0.344080 -0.088750 0.901930 18.662146 -3.491469 9.557714 -43.959849 19.020769 -6.844181 100.825978 32.317852 -19.337765 -0.635686 -3.118282 2.745543 0.165550 -0.474250 0.096570 -5.507218 -0.021968 -11.552760 8.711848 -0.941728 77.371233 -28.792737 8.769936 23.656001 13.008030 6.274549 -20.153888 10.131782 1.666593 54.615830 -5.131860 7.444190 -17.442010 -21.898610 -32.380099 13.955319 -9.648017 -2.421681 -0.830875 9.372173 0.306159 -1.174599 -3.707317 2.596049 1.007470 -0.269640 0.236250 -0.553110 -6.230144 33.301984 0.005780 -15.368494 10.889073 -25.676536 -60.071765 9.786572 -10.020910 3.390328 -1.720588 -0.432640 -0.087840 0.151400 -0.645230 
0.730860 13.127990 -1.851550 -65.345502 -56.975163 9.638193 -15.952517 7.285645 4.357707 -23.194082 -15.564691 -63.109423 55.935638 -15.216010 60.230604 1.214108 14.833283 -0.935181 0.500540 0.067900 1.049760 18.689946 -3.876045 9.100451 -41.247262 20.410454 -5.262821 106.603004 27.406176 -14.082384 -0.792067 -3.275213 2.644007 0.243500 -0.604950 0.035180 -5.394772 0.043620 -11.439033 8.632634 -1.988562 76.822429 -28.889543 9.744098 24.987205 14.070573 4.099705 -20.236321 5.163419 3.347045 56.642307 -6.552180 6.916190 -21.440460 -20.775824 -31.747396 13.941764 -14.099274 -2.559559 -0.194434 9.437541 2.215341 -0.989217 -3.561189 2.556964 1.092740 -0.401740 0.328260 -0.516400 -9.048020 34.504729 -0.764593 -13.435447 10.856495 -26.725066 -60.540603 10.419881 -10.389198 3.469804 -1.732309 -0.416810 -0.033110 0.050170 -0.679660 
0.653930 13.178200 -1.718300 -67.334269 -60.493100 8.065222 -15.978723 8.039159 4.494013 -19.094616 -14.230661 -62.213583 54.907838 -18.535955 77.137983 1.820425 17.770608 -1.653290 0.552400 0.156740 1.146590 18.468705 -4.692161 8.116563 -42.344715 20.579911 -6.010586 115.218597 11.513503 -4.293354 -1.196877 -4.683169 2.158879 0.319830 -0.597010 -0.027220 -5.044048 -0.481098 -11.009759 5.324863 -0.673299 76.320681 -28.157235 10.822203 29.260540 14.929949 3.172492 -22.064714 1.139172 5.933554 59.335285 -5.838290 6.679380 -26.204170 -20.138630 -33.227086 13.787530 -16.693118 -0.174525 0.060421 8.861816 4.172363 -0.920299 -3.582357 2.192560 1.205860 -0.443480 0.404040 -0.537980 -11.578672 36.297690 0.601611 -4.919621 9.980376 -33.925069 -66.974909 16.847085 -15.116979 3.619055 -1.626169 -0.488370 0.160350 0.046030 -0.700980 
0.574320 13.168920 -1.653520 -64.082181 -61.907162 6.148192 -16.191240 8.509125 5.266824 -14.195198 -17.201125 -62.035709 55.344127 -23.094713 100.579719 2.912913 21.524155 -2.326610 0.640540 0.299440 1.252100 18.155159 -5.192392 6.718774 -46.124611 17.664147 -12.645140 121.040832 -11.391491 4.480365 -1.884699 -7.308519 1.387670 0.373000 -0.691360 -0.069070 -4.269449 -1.654567 -10.886052 0.130160 1.462022 72.142836 -25.715648 11.719822 31.695311 15.694919 5.449758 -24.428566 4.004451 5.207469 64.655388 -9.691310 7.385910 -26.046720 -20.465801 -35.015107 13.981394 -18.630768 3.181529 -0.104917 7.849535 4.998654 -0.766006 -3.520574 2.054254 1.180090 -0.457270 0.467300 -0.526070 -13.631614 37.656973 4.222942 7.808619 11.594088 -39.081729 -73.962989 18.513546 -19.774977 3.766361 -1.736532 -0.437960 0.177300 -0.049710 -0.715550 
0.546950 13.206320 -1.611380 -57.724668 -63.992765 1.416281 -16.369209 9.688293 5.885164 -11.495991 -19.003672 -60.315595 55.906127 -24.216176 109.591019 3.325674 22.414747 -2.426702 0.817310 0.568460 1.399410 17.863768 -6.065188 4.660204 -46.738304 15.517529 -20.256055 110.715115 -42.440911 20.585319 -2.638658 -10.347304 0.521568 0.469610 -0.861870 -0.065520 -2.901794 -3.467562 -10.483806 -7.676404 7.814872 67.804514 -19.050529 12.440262 33.852556 15.409343 8.443480 -26.298314 9.054152 2.493903 70.670977 -13.150710 7.062820 -27.161780 -21.560120 -38.855187 15.115424 -21.866287 6.089848 -0.912785 9.188071 6.534820 -0.483720 -3.455981 2.072703 1.130020 -0.507760 0.603310 -0.496320 -13.221966 43.163775 6.820398 18.587921 10.437770 -44.257604 -76.789292 22.792925 -25.451873 4.000589 -1.905564 -0.294150 0.135250 -0.206780 -0.697950 
0.523800 13.168540 -1.551630 -57.254918 -63.767710 4.259596 -16.649109 9.350826 6.074064 -8.800777 -22.866524 -58.390713 58.753618 -29.376315 110.838090 3.651063 23.802317 -2.705593 0.943260 0.747560 1.509670 17.746260 -5.175981 4.962587 -44.457433 15.417137 -28.612302 69.534933 -60.428663 57.299187 -3.168603 -12.683995 -0.114313 0.538960 -0.984390 -0.076350 -2.330257 -4.732009 -10.912895 -8.348738 8.067804 64.101440 -13.146590 10.672049 34.067631 13.602791 9.824302 -28.063601 11.103596 0.352240 78.412838 -11.495030 5.876110 -30.064960 -22.610657 -44.455022 16.646620 -29.094654 8.178834 -2.828957 12.706063 7.226182 -0.306382 -3.338963 2.135685 1.221280 -0.610900 0.751020 -0.505710 -8.341402 48.446773 9.469748 32.235841 6.626189 -45.649065 -77.891597 27.171664 -31.936425 3.640752 -1.872938 -0.235200 0.183150 -0.268440 -0.702460 
0.445440 13.154540 -1.430140 -53.664988 -62.545577 2.912468 -16.879540 9.283141 6.211699 -4.509144 -26.972871 -54.858707 58.444378 -32.857193 115.195422 3.815403 24.770634 -2.942360 1.178190 1.001020 1.721610 17.658428 -4.424247 4.989764 -43.684436 13.637561 -28.945765 27.095522 -53.355246 91.260323 -4.064534 -16.884952 -1.145788 0.672770 -1.180920 -0.096170 -1.596888 -6.176925 -11.255009 -8.611740 8.285228 61.061256 -6.583933 8.631157 36.859731 11.562303 10.683063 -31.633309 12.400685 -2.698787 86.676128 -9.805260 3.817030 -35.179170 -27.022547 -49.595449 16.985692 -29.107152 9.259890 -4.829050 18.301925 6.632444 -0.800214 -3.292507 2.140711 1.387790 -0.786990 0.946950 -0.494260 0.677249 53.042840 10.143218 39.824803 -0.465182 -48.684749 -74.289102 33.605581 -35.895783 3.408682 -1.811355 -0.186480 0.240370 -0.384870 -0.746460 
0.416890 13.062510 -1.375790 -59.894676 -66.574016 10.313341 -16.889526 9.983012 6.577509 7.230530 -25.045917 -55.924386 51.476939 -29.891898 125.516761 3.606684 23.302581 -2.670163 1.326290 1.241340 1.751570 17.551339 -5.931196 3.562000 -36.728259 9.515110 -36.080637 -2.014537 -29.054804 106.131113 -3.710308 -15.902667 -0.982631 0.784360 -1.208260 -0.092840 -1.706525 -5.647672 -10.711706 -4.107066 7.292803 57.744175 -4.149355 9.123371 39.084498 10.100688 10.305294 -33.918338 11.003911 -3.581391 90.191658 -6.277810 2.634000 -36.604020 -27.741525 -50.728657 16.373803 -25.723960 3.662318 -8.543399 25.447568 6.482335 -2.212070 -3.567750 2.325560 1.391850 -0.830340 1.045710 -0.417410 5.009910 53.933020 10.978427 47.394043 -3.893416 -41.890374 -58.983595 26.015325 -24.753288 2.868270 -1.844276 -0.110520 0.293820 -0.467900 -0.689770 
0.347870 12.918200 -1.361200 -60.244680 -68.132617 14.522968 -16.840907 9.435476 6.991711 20.329593 -23.948696 -59.645506 41.675973 -15.424652 137.989232 2.717230 18.572667 -1.747123 1.543480 1.599000 1.746380 17.625161 -6.515958 3.309361 -31.489689 3.286234 -47.205563 -15.297446 -11.718535 100.194002 -3.186003 -13.678164 -0.518225 0.957070 -1.169710 -0.078930 -2.208462 -4.499428 -10.690188 0.272537 5.267983 51.753697 1.481490 7.288834 40.962418 5.939409 6.177390 -33.332834 4.530558 -1.373294 91.052519 1.290270 2.853350 -35.893050 -23.899721 -52.022419 15.648952 -29.828509 -4.982440 -13.867904 32.709056 -0.166411 -5.735590 -3.280828 2.839339 1.314840 -0.856260 1.123030 -0.284300 11.376792 55.464116 15.125952 54.744881 -7.243025 -32.893619 -42.980910 15.657261 -13.019845 2.511354 -1.797056 0.019530 0.337320 -0.583030 -0.560400 
0.290240 12.813080 -1.347770 -65.664392 -74.747266 19.518484 -16.846732 9.022841 7.239465 35.069447 -17.219216 -53.551740 34.355805 12.104121 146.859097 2.418254 15.768827 -1.024836 1.616950 1.822200 1.653390 17.616087 -6.630258 3.324615 -24.394987 2.903316 -54.202670 -24.478717 1.391143 83.968433 -2.778201 -11.945409 -0.047333 0.984750 -1.100320 -0.065850 -2.705406 -3.859113 -10.775351 0.188082 5.611296 51.949891 5.872069 7.355486 41.654983 0.991417 1.808406 -34.131900 -1.676527 1.289089 92.322652 6.241580 5.061930 -35.725770 -24.355066 -51.216063 12.537521 -26.812562 -8.358798 -17.326445 36.694724 -7.237025 -8.639470 -3.141268 3.050878 1.178300 -0.849700 1.162790 -0.175000 23.629909 55.163334 17.157653 46.432045 -11.640153 -20.754679 -31.832988 4.118603 -4.730968 2.871340 -1.620006 0.171330 0.330050 -0.665820 -0.399900 
